<mxfile host="app.diagrams.net" agent="Mozilla/5.0 (Windows NT 10.0; Win64; x64) AppleWebKit/537.36 (KHTML, like Gecko) Chrome/136.0.0.0 Safari/537.36 Edg/136.0.0.0" version="27.0.9">
  <diagram id="R2lEEEUBdFMjLlhIrx00" name="Page-1">
    <mxGraphModel dx="1034" dy="540" grid="1" gridSize="10" guides="1" tooltips="1" connect="1" arrows="1" fold="1" page="1" pageScale="1" pageWidth="850" pageHeight="1100" math="0" shadow="0" extFonts="Permanent Marker^https://fonts.googleapis.com/css?family=Permanent+Marker">
      <root>
        <mxCell id="0" />
        <mxCell id="1" parent="0" />
        <mxCell id="gNgFz4haOFsRgrcj9hvQ-1" style="edgeStyle=orthogonalEdgeStyle;shape=connector;rounded=0;orthogonalLoop=1;jettySize=auto;html=1;exitX=0.5;exitY=1;exitDx=0;exitDy=0;entryX=0.91;entryY=0.003;entryDx=0;entryDy=0;entryPerimeter=0;strokeColor=default;align=center;verticalAlign=middle;fontFamily=Times New Roman;fontSize=7;fontColor=default;labelBackgroundColor=default;autosize=1;resizable=0;startFill=0;endArrow=none;" parent="1" source="gNgFz4haOFsRgrcj9hvQ-9" target="gNgFz4haOFsRgrcj9hvQ-5" edge="1">
          <mxGeometry relative="1" as="geometry" />
        </mxCell>
        <mxCell id="gNgFz4haOFsRgrcj9hvQ-4" style="edgeStyle=orthogonalEdgeStyle;shape=connector;rounded=0;orthogonalLoop=1;jettySize=auto;html=1;exitX=0;exitY=0.75;exitDx=0;exitDy=0;entryX=1;entryY=0.5;entryDx=0;entryDy=0;strokeColor=default;align=center;verticalAlign=middle;fontFamily=Times New Roman;fontSize=11;fontColor=default;labelBackgroundColor=default;startFill=0;endArrow=none;" parent="1" source="gNgFz4haOFsRgrcj9hvQ-5" target="gNgFz4haOFsRgrcj9hvQ-6" edge="1">
          <mxGeometry relative="1" as="geometry" />
        </mxCell>
        <mxCell id="gNgFz4haOFsRgrcj9hvQ-5" value="Oggetto" style="whiteSpace=wrap;html=1;align=center;fontFamily=Times New Roman;" parent="1" vertex="1">
          <mxGeometry x="295" y="515" width="110" height="40" as="geometry" />
        </mxCell>
        <mxCell id="gNgFz4haOFsRgrcj9hvQ-6" value="" style="ellipse;whiteSpace=wrap;html=1;aspect=fixed;fillColor=#000000;fontFamily=Times New Roman;" parent="1" vertex="1">
          <mxGeometry x="260" y="540" width="10" height="10" as="geometry" />
        </mxCell>
        <mxCell id="gNgFz4haOFsRgrcj9hvQ-7" value="" style="ellipse;whiteSpace=wrap;html=1;aspect=fixed;fontFamily=Times New Roman;" parent="1" vertex="1">
          <mxGeometry x="260" y="520" width="10" height="10" as="geometry" />
        </mxCell>
        <mxCell id="gNgFz4haOFsRgrcj9hvQ-8" value="" style="ellipse;whiteSpace=wrap;html=1;aspect=fixed;fontFamily=Times New Roman;" parent="1" vertex="1">
          <mxGeometry x="430" y="525" width="10" height="10" as="geometry" />
        </mxCell>
        <mxCell id="gNgFz4haOFsRgrcj9hvQ-9" value="" style="ellipse;whiteSpace=wrap;html=1;aspect=fixed;fontFamily=Times New Roman;" parent="1" vertex="1">
          <mxGeometry x="390" y="475" width="10" height="10" as="geometry" />
        </mxCell>
        <mxCell id="h9At-hyNBGL_NxZkHdia-23" style="edgeStyle=orthogonalEdgeStyle;rounded=0;orthogonalLoop=1;jettySize=auto;html=1;exitX=0;exitY=0.5;exitDx=0;exitDy=0;entryX=1;entryY=0.75;entryDx=0;entryDy=0;endArrow=none;startFill=0;" edge="1" parent="1" source="gNgFz4haOFsRgrcj9hvQ-10" target="gNgFz4haOFsRgrcj9hvQ-5">
          <mxGeometry relative="1" as="geometry" />
        </mxCell>
        <mxCell id="gNgFz4haOFsRgrcj9hvQ-10" value="" style="ellipse;whiteSpace=wrap;html=1;aspect=fixed;fontFamily=Times New Roman;" parent="1" vertex="1">
          <mxGeometry x="430" y="540" width="10" height="10" as="geometry" />
        </mxCell>
        <mxCell id="gNgFz4haOFsRgrcj9hvQ-11" value="Codice&amp;nbsp;" style="text;html=1;align=center;verticalAlign=middle;resizable=0;points=[];autosize=1;strokeColor=none;fillColor=none;fontFamily=Times New Roman;fontSize=12;fontColor=default;labelBackgroundColor=default;" parent="1" vertex="1">
          <mxGeometry x="210" y="530" width="60" height="30" as="geometry" />
        </mxCell>
        <mxCell id="gNgFz4haOFsRgrcj9hvQ-12" value="Descrizione" style="text;html=1;align=center;verticalAlign=middle;resizable=0;points=[];autosize=1;strokeColor=none;fillColor=none;fontFamily=Times New Roman;fontSize=12;fontColor=default;labelBackgroundColor=default;" parent="1" vertex="1">
          <mxGeometry x="190" y="505" width="80" height="30" as="geometry" />
        </mxCell>
        <mxCell id="gNgFz4haOFsRgrcj9hvQ-13" value="(1,1)" style="text;html=1;align=center;verticalAlign=middle;resizable=0;points=[];autosize=1;strokeColor=none;fillColor=none;fontFamily=Times New Roman;fontSize=11;fontColor=default;labelBackgroundColor=default;" parent="1" vertex="1">
          <mxGeometry x="340" y="485" width="40" height="30" as="geometry" />
        </mxCell>
        <mxCell id="gNgFz4haOFsRgrcj9hvQ-14" value="Dimensioni" style="text;html=1;align=center;verticalAlign=middle;resizable=0;points=[];autosize=1;strokeColor=none;fillColor=none;fontFamily=Times New Roman;fontSize=12;fontColor=default;labelBackgroundColor=default;" parent="1" vertex="1">
          <mxGeometry x="430" y="530" width="80" height="30" as="geometry" />
        </mxCell>
        <mxCell id="gNgFz4haOFsRgrcj9hvQ-15" value="Stato" style="text;html=1;align=center;verticalAlign=middle;resizable=0;points=[];autosize=1;strokeColor=none;fillColor=none;fontFamily=Times New Roman;fontSize=12;fontColor=default;labelBackgroundColor=default;" parent="1" vertex="1">
          <mxGeometry x="430" y="510" width="50" height="30" as="geometry" />
        </mxCell>
        <mxCell id="gNgFz4haOFsRgrcj9hvQ-16" value="Amministratore" style="whiteSpace=wrap;html=1;align=center;fontFamily=Times New Roman;" parent="1" vertex="1">
          <mxGeometry x="290" y="235.39999999999998" width="110" height="40" as="geometry" />
        </mxCell>
        <mxCell id="gNgFz4haOFsRgrcj9hvQ-17" value="Creazione" style="shape=rhombus;perimeter=rhombusPerimeter;whiteSpace=wrap;html=1;align=center;fontFamily=Times New Roman;" parent="1" vertex="1">
          <mxGeometry x="280" y="365" width="120" height="60" as="geometry" />
        </mxCell>
        <mxCell id="gNgFz4haOFsRgrcj9hvQ-19" value="(1,n)" style="text;html=1;align=center;verticalAlign=middle;resizable=0;points=[];autosize=1;strokeColor=none;fillColor=none;fontFamily=Times New Roman;fontSize=12;fontColor=default;labelBackgroundColor=default;" parent="1" vertex="1">
          <mxGeometry x="335" y="275.4" width="50" height="30" as="geometry" />
        </mxCell>
        <mxCell id="gNgFz4haOFsRgrcj9hvQ-20" style="edgeStyle=orthogonalEdgeStyle;shape=connector;rounded=0;orthogonalLoop=1;jettySize=auto;html=1;exitX=0.5;exitY=1;exitDx=0;exitDy=0;entryX=0.25;entryY=0;entryDx=0;entryDy=0;strokeColor=default;align=center;verticalAlign=middle;fontFamily=Times New Roman;fontSize=11;fontColor=default;labelBackgroundColor=default;startFill=0;endArrow=none;" parent="1" edge="1">
          <mxGeometry relative="1" as="geometry">
            <mxPoint x="330" y="205" as="sourcePoint" />
            <mxPoint x="330" y="235" as="targetPoint" />
          </mxGeometry>
        </mxCell>
        <mxCell id="gNgFz4haOFsRgrcj9hvQ-21" value="&lt;font&gt;Nome utente&lt;/font&gt;" style="text;html=1;align=center;verticalAlign=middle;resizable=0;points=[];autosize=1;strokeColor=none;fillColor=none;fontSize=12;fontFamily=Times New Roman;" parent="1" vertex="1">
          <mxGeometry x="275" y="180" width="90" height="30" as="geometry" />
        </mxCell>
        <mxCell id="gNgFz4haOFsRgrcj9hvQ-22" style="edgeStyle=orthogonalEdgeStyle;shape=connector;rounded=0;orthogonalLoop=1;jettySize=auto;html=1;exitX=0.5;exitY=1;exitDx=0;exitDy=0;entryX=0.75;entryY=0;entryDx=0;entryDy=0;strokeColor=default;align=center;verticalAlign=middle;fontFamily=Times New Roman;fontSize=11;fontColor=default;labelBackgroundColor=default;startFill=0;endArrow=none;" parent="1" edge="1">
          <mxGeometry relative="1" as="geometry">
            <mxPoint x="380" y="205" as="sourcePoint" />
            <mxPoint x="380" y="235" as="targetPoint" />
          </mxGeometry>
        </mxCell>
        <mxCell id="gNgFz4haOFsRgrcj9hvQ-23" value="" style="ellipse;whiteSpace=wrap;html=1;aspect=fixed;fillColor=#000000;fontFamily=Times New Roman;" parent="1" vertex="1">
          <mxGeometry x="325" y="200" width="10" height="10" as="geometry" />
        </mxCell>
        <mxCell id="gNgFz4haOFsRgrcj9hvQ-24" value="" style="ellipse;whiteSpace=wrap;html=1;aspect=fixed;fontFamily=Times New Roman;" parent="1" vertex="1">
          <mxGeometry x="375" y="200" width="10" height="10" as="geometry" />
        </mxCell>
        <mxCell id="gNgFz4haOFsRgrcj9hvQ-25" value="&lt;font&gt;Password&lt;/font&gt;" style="text;html=1;align=center;verticalAlign=middle;resizable=0;points=[];autosize=1;strokeColor=none;fillColor=none;fontSize=12;fontFamily=Times New Roman;" parent="1" vertex="1">
          <mxGeometry x="350" y="180" width="70" height="30" as="geometry" />
        </mxCell>
        <mxCell id="gNgFz4haOFsRgrcj9hvQ-26" style="edgeStyle=orthogonalEdgeStyle;shape=connector;rounded=0;orthogonalLoop=1;jettySize=auto;html=1;exitX=0;exitY=0.25;exitDx=0;exitDy=0;entryX=1.003;entryY=0.684;entryDx=0;entryDy=0;entryPerimeter=0;strokeColor=default;align=center;verticalAlign=middle;fontFamily=Times New Roman;fontSize=11;fontColor=default;labelBackgroundColor=default;startFill=0;endArrow=none;" parent="1" source="gNgFz4haOFsRgrcj9hvQ-5" target="gNgFz4haOFsRgrcj9hvQ-12" edge="1">
          <mxGeometry relative="1" as="geometry" />
        </mxCell>
        <mxCell id="gNgFz4haOFsRgrcj9hvQ-27" style="edgeStyle=orthogonalEdgeStyle;shape=connector;rounded=0;orthogonalLoop=1;jettySize=auto;html=1;exitX=0.5;exitY=1;exitDx=0;exitDy=0;entryX=0.413;entryY=0.017;entryDx=0;entryDy=0;entryPerimeter=0;strokeColor=default;align=center;verticalAlign=middle;fontFamily=Times New Roman;fontSize=11;fontColor=default;labelBackgroundColor=default;startFill=0;endArrow=none;" parent="1" source="gNgFz4haOFsRgrcj9hvQ-17" target="gNgFz4haOFsRgrcj9hvQ-5" edge="1">
          <mxGeometry relative="1" as="geometry" />
        </mxCell>
        <mxCell id="gNgFz4haOFsRgrcj9hvQ-28" value="&lt;font&gt;Prezzo base&lt;/font&gt;" style="text;html=1;align=center;verticalAlign=middle;resizable=0;points=[];autosize=1;strokeColor=none;fillColor=none;fontFamily=Times New Roman;fontSize=12;fontColor=default;labelBackgroundColor=default;" parent="1" vertex="1">
          <mxGeometry x="360" y="450" width="80" height="30" as="geometry" />
        </mxCell>
        <mxCell id="gNgFz4haOFsRgrcj9hvQ-30" value="" style="endArrow=none;html=1;rounded=0;exitX=0.5;exitY=0;exitDx=0;exitDy=0;entryX=0.46;entryY=1.001;entryDx=0;entryDy=0;entryPerimeter=0;" parent="1" source="gNgFz4haOFsRgrcj9hvQ-17" target="gNgFz4haOFsRgrcj9hvQ-16" edge="1">
          <mxGeometry width="50" height="50" relative="1" as="geometry">
            <mxPoint x="360" y="300" as="sourcePoint" />
            <mxPoint x="410" y="250" as="targetPoint" />
          </mxGeometry>
        </mxCell>
        <mxCell id="h9At-hyNBGL_NxZkHdia-18" style="edgeStyle=orthogonalEdgeStyle;rounded=0;orthogonalLoop=1;jettySize=auto;html=1;exitX=0.5;exitY=0;exitDx=0;exitDy=0;endArrow=none;startFill=0;" edge="1" parent="1">
          <mxGeometry relative="1" as="geometry">
            <mxPoint x="355" y="600" as="targetPoint" />
            <Array as="points">
              <mxPoint x="305" y="600" />
            </Array>
            <mxPoint x="305" y="630" as="sourcePoint" />
          </mxGeometry>
        </mxCell>
        <mxCell id="h9At-hyNBGL_NxZkHdia-19" style="edgeStyle=orthogonalEdgeStyle;rounded=0;orthogonalLoop=1;jettySize=auto;html=1;exitX=0.5;exitY=0;exitDx=0;exitDy=0;endArrow=none;startFill=0;" edge="1" parent="1">
          <mxGeometry relative="1" as="geometry">
            <mxPoint x="350" y="600" as="targetPoint" />
            <Array as="points">
              <mxPoint x="430" y="600" />
            </Array>
            <mxPoint x="430" y="630" as="sourcePoint" />
          </mxGeometry>
        </mxCell>
        <mxCell id="h9At-hyNBGL_NxZkHdia-20" value="&lt;font face=&quot;Times New Roman&quot;&gt;Oggetto&amp;nbsp; venduto&lt;/font&gt;" style="whiteSpace=wrap;html=1;align=center;" vertex="1" parent="1">
          <mxGeometry x="260" y="630" width="100" height="40" as="geometry" />
        </mxCell>
        <mxCell id="h9At-hyNBGL_NxZkHdia-21" value="" style="shape=flexArrow;endArrow=classic;html=1;rounded=0;entryX=0.5;entryY=1;entryDx=0;entryDy=0;labelBackgroundColor=none;fillColor=#000000;" edge="1" parent="1">
          <mxGeometry width="50" height="50" relative="1" as="geometry">
            <mxPoint x="349.8" y="600" as="sourcePoint" />
            <mxPoint x="349.8" y="555" as="targetPoint" />
          </mxGeometry>
        </mxCell>
        <mxCell id="h9At-hyNBGL_NxZkHdia-22" style="edgeStyle=orthogonalEdgeStyle;rounded=0;orthogonalLoop=1;jettySize=auto;html=1;exitX=0;exitY=0.5;exitDx=0;exitDy=0;entryX=0.999;entryY=0.447;entryDx=0;entryDy=0;entryPerimeter=0;endArrow=none;startFill=0;" edge="1" parent="1" source="gNgFz4haOFsRgrcj9hvQ-8" target="gNgFz4haOFsRgrcj9hvQ-5">
          <mxGeometry relative="1" as="geometry" />
        </mxCell>
        <mxCell id="h9At-hyNBGL_NxZkHdia-24" value="&lt;font face=&quot;Times New Roman&quot;&gt;Oggetto non venduto&lt;/font&gt;" style="whiteSpace=wrap;html=1;align=center;" vertex="1" parent="1">
          <mxGeometry x="385" y="630" width="100" height="40" as="geometry" />
        </mxCell>
      </root>
    </mxGraphModel>
  </diagram>
</mxfile>
